<svg xmlns="http://www.w3.org/2000/svg" xmlns:xlink="http://www.w3.org/1999/xlink" id="Layer_1" x="0px" y="0px" viewBox="0 0 512 512" xml:space="preserve"><path fill-rule="evenodd" clip-rule="evenodd" fill="#F5B32D" d="M339.314,368.818h33.321V241.999l-33.321-23.858V368.818z   M172.686,177.159v-40.991c-33.317,23.868-66.639,47.726-99.96,71.584V435.48h33.322c55.535,0,111.079,0,166.613,0h33.331  c0-80.409,0-160.797,0-241.207l-33.331-23.858c0,77.241,0,154.492,0,231.734c-55.534,0-111.078,0-166.613,0V224.875L172.686,177.159  z M339.314,402.149v33.331h66.643h33.317V207.751C378.195,164.002,317.091,120.26,256.007,76.52l-49.999,35.792  c0,85.508,0,171.007,0,256.506h33.331c0-79.791,0-159.582,0-239.382l16.668-11.934c49.985,35.79,99.96,71.581,149.95,107.373  v177.274H339.314z M139.369,241.999v126.819h33.317V218.141L139.369,241.999z"></path></svg>