<svg xmlns="http://www.w3.org/2000/svg" xmlns:xlink="http://www.w3.org/1999/xlink" id="Layer_1" x="0px" y="0px" viewBox="0 0 189.674 27.758" xml:space="preserve"><g>	<g>		<path fill="#253957" d="M36.529,26.898c-0.119,0-0.216-0.097-0.216-0.216l0.048-6.721l-0.023-5.833    c-0.889,0.84-2.04,1.44-3.36,1.849c-0.12,0.048-0.216-0.024-0.216-0.145v-2.352c0-0.12,0.071-0.24,0.216-0.288    c1.608-0.576,2.784-1.561,3.504-2.904c0.048-0.12,0.192-0.192,0.312-0.192h3.024c0.12,0,0.216,0.096,0.216,0.216l-0.072,8.401    l0.072,7.969c0,0.119-0.096,0.216-0.216,0.216H36.529z"></path>		<path fill="#253957" d="M48.073,27.258c-4.032,0-6.673-3.096-6.673-8.712c0-5.833,2.617-8.81,6.673-8.81    c4.032,0,6.697,2.904,6.697,8.81C54.771,24.162,52.13,27.258,48.073,27.258z M48.098,24.45c1.872,0,2.904-1.729,2.904-5.904    c0-4.177-1.032-6.001-2.929-6.001c-1.92,0-2.904,1.752-2.904,6.001C45.169,22.698,46.226,24.45,48.098,24.45z"></path>		<path fill="#253957" d="M61.369,27.139c-3.696,0-5.664-1.849-5.929-5.305c-0.023-0.12,0.072-0.216,0.192-0.216h3.096    c0.12,0,0.217,0.096,0.217,0.216c0.096,1.824,0.912,2.88,2.52,2.856c1.465,0,2.473-1.057,2.521-2.833    c0.048-1.92-0.984-2.712-3.48-2.712h-0.504c-0.12,0-0.216-0.096-0.216-0.216v-1.896c0-0.12,0.096-0.216,0.216-0.216h0.504    c2.208,0,3.192-0.937,3.192-2.28c0-1.296-0.912-2.232-2.112-2.232c-1.464,0-2.256,0.816-2.376,2.496    c-0.024,0.12-0.12,0.217-0.24,0.217h-3.048c-0.12,0-0.216-0.097-0.192-0.217c0.216-3.192,2.376-4.944,6.049-4.944    c3.264,0,5.473,1.704,5.496,4.32c0,2.017-1.176,3.097-2.76,3.625c2.04,0.527,3.192,1.896,3.192,3.936    C67.706,25.194,64.777,27.139,61.369,27.139z"></path>		<path fill="#253957" d="M72.121,26.898c-0.12,0-0.216-0.097-0.216-0.216l0.048-6.721l-0.024-5.833    c-0.888,0.84-2.04,1.44-3.36,1.849c-0.12,0.048-0.216-0.024-0.216-0.145v-2.352c0-0.12,0.072-0.24,0.216-0.288    c1.608-0.576,2.784-1.561,3.505-2.904c0.048-0.12,0.191-0.192,0.312-0.192h3.024c0.12,0,0.216,0.096,0.216,0.216l-0.071,8.401    l0.071,7.969c0,0.119-0.096,0.216-0.216,0.216H72.121z"></path>		<path fill="#F5B32D" d="M85.161,23.075l-1.691-2.549h-2.45l0.073,6.151c0,0.122-0.098,0.221-0.22,0.221h-3.357    c-0.123,0-0.221-0.099-0.221-0.221l0.098-8.356l-0.098-8.356c0-0.123,0.098-0.221,0.221-0.221h6.959    c4.289,0,6.764,1.813,6.764,5.392c0,2.523-1.396,4.264-3.822,4.999l4.264,6.567c0.049,0.098,0,0.196-0.098,0.196h-3.896    c-0.123,0-0.27-0.074-0.344-0.196L85.161,23.075z M84.622,12.465h-3.554l-0.073,5.342h3.725c1.568,0,2.916-0.735,2.916-2.598    S86.533,12.465,84.622,12.465z"></path>		<path fill="#F5B32D" d="M92.583,26.898c-0.123,0-0.221-0.099-0.221-0.221l0.122-8.356l-0.122-8.356    c0-0.123,0.098-0.221,0.221-0.221h11.566c0.122,0,0.221,0.098,0.221,0.221v2.328c0,0.122-0.099,0.221-0.221,0.221H96.16    l-0.098,3.945h7.376c0.123,0,0.221,0.098,0.221,0.221v2.328c0,0.122-0.098,0.22-0.221,0.22h-7.376l0.098,4.901h8.186    c0.122,0,0.221,0.099,0.221,0.221v2.328c0,0.122-0.099,0.221-0.221,0.221H92.583z"></path>		<path fill="#F5B32D" d="M105.764,26.898c-0.123,0-0.221-0.099-0.221-0.221l0.122-8.356l-0.122-8.356    c0-0.123,0.098-0.221,0.221-0.221h11.199c0.122,0,0.22,0.098,0.22,0.221v2.328c0,0.122-0.098,0.221-0.22,0.221h-7.622    l-0.098,4.705h7.376c0.123,0,0.221,0.098,0.221,0.221v2.327c0,0.123-0.098,0.221-0.221,0.221h-7.376l0.098,6.69    c0,0.122-0.098,0.221-0.22,0.221H105.764z"></path>		<path fill="#F5B32D" d="M118.258,26.898c-0.122,0-0.221-0.099-0.221-0.221l0.123-8.356l-0.123-8.356    c0-0.123,0.099-0.221,0.221-0.221h11.566c0.123,0,0.221,0.098,0.221,0.221v2.328c0,0.122-0.098,0.221-0.221,0.221h-7.988    l-0.098,3.945h7.376c0.122,0,0.221,0.098,0.221,0.221v2.328c0,0.122-0.099,0.22-0.221,0.22h-7.376l0.098,4.901h8.185    c0.123,0,0.221,0.099,0.221,0.221v2.328c0,0.122-0.098,0.221-0.221,0.221H118.258z"></path>		<path fill="#F5B32D" d="M139.084,23.075l-1.69-2.549h-2.45l0.073,6.151c0,0.122-0.098,0.221-0.221,0.221h-3.357    c-0.122,0-0.221-0.099-0.221-0.221l0.099-8.356l-0.099-8.356c0-0.123,0.099-0.221,0.221-0.221h6.96    c4.288,0,6.764,1.813,6.764,5.392c0,2.523-1.397,4.264-3.823,4.999l4.264,6.567c0.05,0.098,0,0.196-0.098,0.196h-3.896    c-0.122,0-0.27-0.074-0.343-0.196L139.084,23.075z M138.545,12.465h-3.553l-0.073,5.342h3.725c1.568,0,2.916-0.735,2.916-2.598    S140.457,12.465,138.545,12.465z"></path>		<path fill="#F5B32D" d="M154.151,23.075l-1.69-2.549h-2.45l0.073,6.151c0,0.122-0.098,0.221-0.221,0.221h-3.357    c-0.122,0-0.221-0.099-0.221-0.221l0.099-8.356l-0.099-8.356c0-0.123,0.099-0.221,0.221-0.221h6.96    c4.288,0,6.764,1.813,6.764,5.392c0,2.523-1.397,4.264-3.823,4.999l4.264,6.567c0.05,0.098,0,0.196-0.098,0.196h-3.896    c-0.122,0-0.27-0.074-0.343-0.196L154.151,23.075z M153.612,12.465h-3.553l-0.073,5.342h3.725c1.568,0,2.916-0.735,2.916-2.598    S155.525,12.465,153.612,12.465z"></path>		<path fill="#F5B32D" d="M174.169,26.898c-0.123,0-0.245-0.099-0.294-0.221l-1.323-4.142h-6.421l-1.274,4.142    c-0.049,0.122-0.171,0.221-0.294,0.221h-3.357c-0.122,0-0.195-0.099-0.146-0.221l5.808-16.713    c0.049-0.123,0.172-0.221,0.294-0.221h4.583c0.122,0,0.245,0.098,0.294,0.221l5.685,16.713c0.05,0.122-0.024,0.221-0.146,0.221    H174.169z M171.62,19.571l-2.353-7.327l-2.229,7.327H171.62z"></path>		<path fill="#F5B32D" d="M178.429,26.898c-0.122,0-0.22-0.099-0.22-0.221l0.122-8.356l-0.122-8.356c0-0.123,0.098-0.221,0.22-0.221    h3.357c0.123,0,0.221,0.098,0.221,0.221l-0.098,8.136l0.098,6.028h6.96c0.122,0,0.221,0.099,0.221,0.221v2.328    c0,0.122-0.099,0.221-0.221,0.221H178.429z"></path>	</g>	<path fill-rule="evenodd" clip-rule="evenodd" fill="#F5B32D" d="M20.092,21.996h2.451V12.67l-2.451-1.755V21.996z M7.838,7.901   V4.887c-2.45,1.755-4.901,3.51-7.351,5.264v16.748h2.451c4.084,0,8.169,0,12.253,0h2.451c0-5.913,0-11.825,0-17.739L15.19,7.405   c0,5.68,0,11.362,0,17.042c-4.084,0-8.169,0-12.253,0V11.41L7.838,7.901z M20.092,24.447v2.451h4.901h2.45V10.151   C22.951,6.934,18.457,3.717,13.965,0.5l-3.677,2.632c0,6.288,0,12.576,0,18.864h2.451c0-5.868,0-11.736,0-17.605l1.226-0.878   c3.676,2.632,7.351,5.264,11.028,7.896v13.037H20.092z M5.387,12.67v9.327h2.45V10.915L5.387,12.67z"></path></g></svg>