<svg xmlns="http://www.w3.org/2000/svg" xmlns:xlink="http://www.w3.org/1999/xlink" id="Layer_1" x="0px" y="0px" viewBox="0 0 43 42.94" style="enable-background:new 0 0 43 42.94;" xml:space="preserve"><style type="text/css">	.st0{opacity:0.3;}	.st1{fill:none;}	.st2{fill:#C4AB6E;}</style><g class="st0">	<g>		<polygon class="st1" points="41.91,8.23 43,7.14 35.83,-0.03 28.67,7.14 29.76,8.23 35.83,2.16   "></polygon>		<polygon class="st2" points="41.79,8.35 41.91,8.23 35.83,2.16 29.76,8.23 29.88,8.35 35.83,2.4   "></polygon>		<polygon class="st1" points="40.69,9.45 41.79,8.35 35.83,2.4 29.88,8.35 30.97,9.45 35.83,4.59   "></polygon>		<polygon class="st2" points="40.57,9.57 40.69,9.45 35.83,4.59 30.97,9.45 31.1,9.57 35.83,4.83   "></polygon>		<polygon class="st1" points="39.48,10.66 40.57,9.57 35.83,4.83 31.1,9.57 32.19,10.66 35.83,7.02   "></polygon>		<polygon class="st2" points="39.36,10.78 39.48,10.66 35.83,7.02 32.19,10.66 32.31,10.78 35.83,7.26   "></polygon>		<polygon class="st1" points="38.26,11.88 39.36,10.78 35.83,7.26 32.31,10.78 33.4,11.88 35.83,9.45   "></polygon>		<polygon class="st2" points="38.14,12 38.26,11.88 35.83,9.45 33.4,11.88 33.53,12 35.83,9.69   "></polygon>		<polygon class="st1" points="37.05,13.09 38.14,12 35.83,9.69 33.53,12 34.62,13.09 35.83,11.88   "></polygon>		<polygon class="st2" points="36.93,13.21 37.05,13.09 35.83,11.88 34.62,13.09 34.74,13.21 35.83,12.12   "></polygon>					<rect x="35.06" y="12.44" transform="matrix(0.7071 -0.7071 0.7071 0.7071 1.1528 29.2079)" class="st1" width="1.55" height="1.55"></rect>	</g>	<g>		<polygon class="st1" points="27.57,8.23 28.67,7.14 21.5,-0.03 14.33,7.14 15.43,8.23 21.5,2.16   "></polygon>		<polygon class="st2" points="27.45,8.35 27.57,8.23 21.5,2.16 15.43,8.23 15.55,8.35 21.5,2.4   "></polygon>		<polygon class="st1" points="26.36,9.45 27.45,8.35 21.5,2.4 15.55,8.35 16.64,9.45 21.5,4.59   "></polygon>		<polygon class="st2" points="26.24,9.57 26.36,9.45 21.5,4.59 16.64,9.45 16.76,9.57 21.5,4.83   "></polygon>		<polygon class="st1" points="25.14,10.66 26.24,9.57 21.5,4.83 16.76,9.57 17.86,10.66 21.5,7.02   "></polygon>		<polygon class="st2" points="25.02,10.78 25.14,10.66 21.5,7.02 17.86,10.66 17.98,10.78 21.5,7.26   "></polygon>		<polygon class="st1" points="23.93,11.88 25.02,10.78 21.5,7.26 17.98,10.78 19.07,11.88 21.5,9.45   "></polygon>		<polygon class="st2" points="23.81,12 23.93,11.88 21.5,9.45 19.07,11.88 19.19,12 21.5,9.69   "></polygon>		<polygon class="st1" points="22.71,13.09 23.81,12 21.5,9.69 19.19,12 20.29,13.09 21.5,11.88   "></polygon>		<polygon class="st2" points="22.59,13.21 22.71,13.09 21.5,11.88 20.29,13.09 20.41,13.21 21.5,12.12   "></polygon>					<rect x="20.73" y="12.44" transform="matrix(0.7071 -0.7071 0.7071 0.7071 -3.0454 19.0726)" class="st1" width="1.55" height="1.55"></rect>	</g>	<g>		<polygon class="st1" points="13.24,8.23 14.33,7.14 7.17,-0.03 0,7.14 1.09,8.23 7.17,2.16   "></polygon>		<polygon class="st2" points="13.12,8.35 13.24,8.23 7.17,2.16 1.09,8.23 1.21,8.35 7.17,2.4   "></polygon>		<polygon class="st1" points="12.03,9.45 13.12,8.35 7.17,2.4 1.21,8.35 2.31,9.45 7.17,4.59   "></polygon>		<polygon class="st2" points="11.9,9.57 12.03,9.45 7.17,4.59 2.31,9.45 2.43,9.57 7.17,4.83   "></polygon>		<polygon class="st1" points="10.81,10.66 11.9,9.57 7.17,4.83 2.43,9.57 3.52,10.66 7.17,7.02   "></polygon>		<polygon class="st2" points="10.69,10.78 10.81,10.66 7.17,7.02 3.52,10.66 3.64,10.78 7.17,7.26   "></polygon>		<polygon class="st1" points="9.6,11.88 10.69,10.78 7.17,7.26 3.64,10.78 4.74,11.88 7.17,9.45   "></polygon>		<polygon class="st2" points="9.47,12 9.6,11.88 7.17,9.45 4.74,11.88 4.86,12 7.17,9.69   "></polygon>		<polygon class="st1" points="8.38,13.09 9.47,12 7.17,9.69 4.86,12 5.95,13.09 7.17,11.88   "></polygon>		<polygon class="st2" points="8.26,13.21 8.38,13.09 7.17,11.88 5.95,13.09 6.07,13.21 7.17,12.12   "></polygon>					<rect x="6.39" y="12.44" transform="matrix(0.7071 -0.7071 0.7071 0.7071 -7.2435 8.9374)" class="st1" width="1.55" height="1.55"></rect>	</g>	<g>		<polygon class="st1" points="41.91,22.57 43,21.47 35.83,14.31 28.67,21.47 29.76,22.57 35.83,16.49   "></polygon>		<polygon class="st2" points="41.79,22.69 41.91,22.57 35.83,16.49 29.76,22.57 29.88,22.69 35.83,16.73   "></polygon>		<polygon class="st1" points="40.69,23.78 41.79,22.69 35.83,16.73 29.88,22.69 30.97,23.78 35.83,18.92   "></polygon>		<polygon class="st2" points="40.57,23.9 40.69,23.78 35.83,18.92 30.97,23.78 31.1,23.9 35.83,19.16   "></polygon>		<polygon class="st1" points="39.48,24.99 40.57,23.9 35.83,19.16 31.1,23.9 32.19,24.99 35.83,21.35   "></polygon>		<polygon class="st2" points="39.36,25.12 39.48,24.99 35.83,21.35 32.19,24.99 32.31,25.12 35.83,21.59   "></polygon>		<polygon class="st1" points="38.26,26.21 39.36,25.12 35.83,21.59 32.31,25.12 33.4,26.21 35.83,23.78   "></polygon>		<polygon class="st2" points="38.14,26.33 38.26,26.21 35.83,23.78 33.4,26.21 33.53,26.33 35.83,24.02   "></polygon>		<polygon class="st1" points="37.05,27.42 38.14,26.33 35.83,24.02 33.53,26.33 34.62,27.42 35.83,26.21   "></polygon>		<polygon class="st2" points="36.93,27.55 37.05,27.42 35.83,26.21 34.62,27.42 34.74,27.55 35.83,26.45   "></polygon>					<rect x="35.06" y="26.77" transform="matrix(0.7071 -0.7071 0.7071 0.7071 -8.9824 33.4061)" class="st1" width="1.55" height="1.55"></rect>	</g>	<g>		<polygon class="st1" points="27.57,22.57 28.67,21.47 21.5,14.31 14.33,21.47 15.43,22.57 21.5,16.49   "></polygon>		<polygon class="st2" points="27.45,22.69 27.57,22.57 21.5,16.49 15.43,22.57 15.55,22.69 21.5,16.73   "></polygon>		<polygon class="st1" points="26.36,23.78 27.45,22.69 21.5,16.73 15.55,22.69 16.64,23.78 21.5,18.92   "></polygon>		<polygon class="st2" points="26.24,23.9 26.36,23.78 21.5,18.92 16.64,23.78 16.76,23.9 21.5,19.16   "></polygon>		<polygon class="st1" points="25.14,24.99 26.24,23.9 21.5,19.16 16.76,23.9 17.86,24.99 21.5,21.35   "></polygon>		<polygon class="st2" points="25.02,25.12 25.14,24.99 21.5,21.35 17.86,24.99 17.98,25.12 21.5,21.59   "></polygon>		<polygon class="st1" points="23.93,26.21 25.02,25.12 21.5,21.59 17.98,25.12 19.07,26.21 21.5,23.78   "></polygon>		<polygon class="st2" points="23.81,26.33 23.93,26.21 21.5,23.78 19.07,26.21 19.19,26.33 21.5,24.02   "></polygon>		<polygon class="st1" points="22.71,27.42 23.81,26.33 21.5,24.02 19.19,26.33 20.29,27.42 21.5,26.21   "></polygon>		<polygon class="st2" points="22.59,27.55 22.71,27.42 21.5,26.21 20.29,27.42 20.41,27.55 21.5,26.45   "></polygon>					<rect x="20.73" y="26.77" transform="matrix(0.7071 -0.7071 0.7071 0.7071 -13.1806 23.2707)" class="st1" width="1.55" height="1.55"></rect>	</g>	<g>		<polygon class="st1" points="13.24,22.57 14.33,21.47 7.17,14.31 0,21.47 1.09,22.57 7.17,16.49   "></polygon>		<polygon class="st2" points="13.12,22.69 13.24,22.57 7.17,16.49 1.09,22.57 1.21,22.69 7.17,16.73   "></polygon>		<polygon class="st1" points="12.03,23.78 13.12,22.69 7.17,16.73 1.21,22.69 2.31,23.78 7.17,18.92   "></polygon>		<polygon class="st2" points="11.9,23.9 12.03,23.78 7.17,18.92 2.31,23.78 2.43,23.9 7.17,19.16   "></polygon>		<polygon class="st1" points="10.81,24.99 11.9,23.9 7.17,19.16 2.43,23.9 3.52,24.99 7.17,21.35   "></polygon>		<polygon class="st2" points="10.69,25.12 10.81,24.99 7.17,21.35 3.52,24.99 3.64,25.12 7.17,21.59   "></polygon>		<polygon class="st1" points="9.6,26.21 10.69,25.12 7.17,21.59 3.64,25.12 4.74,26.21 7.17,23.78   "></polygon>		<polygon class="st2" points="9.47,26.33 9.6,26.21 7.17,23.78 4.74,26.21 4.86,26.33 7.17,24.02   "></polygon>		<polygon class="st1" points="8.38,27.42 9.47,26.33 7.17,24.02 4.86,26.33 5.95,27.42 7.17,26.21   "></polygon>		<polygon class="st2" points="8.26,27.55 8.38,27.42 7.17,26.21 5.95,27.42 6.07,27.55 7.17,26.45   "></polygon>					<rect x="6.39" y="26.77" transform="matrix(0.7071 -0.7071 0.7071 0.7071 -17.3787 13.1355)" class="st1" width="1.55" height="1.55"></rect>	</g>	<g>		<polygon class="st1" points="20.41,15.4 21.5,14.31 14.33,7.14 7.17,14.31 8.26,15.4 14.33,9.33   "></polygon>		<polygon class="st2" points="20.29,15.52 20.41,15.4 14.33,9.33 8.26,15.4 8.38,15.52 14.33,9.57   "></polygon>		<polygon class="st1" points="19.19,16.61 20.29,15.52 14.33,9.57 8.38,15.52 9.47,16.61 14.33,11.75   "></polygon>		<polygon class="st2" points="19.07,16.73 19.19,16.61 14.33,11.75 9.47,16.61 9.6,16.73 14.33,12   "></polygon>		<polygon class="st1" points="17.98,17.83 19.07,16.73 14.33,12 9.6,16.73 10.69,17.83 14.33,14.18   "></polygon>		<polygon class="st2" points="17.86,17.95 17.98,17.83 14.33,14.18 10.69,17.83 10.81,17.95 14.33,14.43   "></polygon>		<polygon class="st1" points="16.76,19.04 17.86,17.95 14.33,14.43 10.81,17.95 11.9,19.04 14.33,16.61   "></polygon>		<polygon class="st2" points="16.64,19.16 16.76,19.04 14.33,16.61 11.9,19.04 12.03,19.16 14.33,16.86   "></polygon>		<polygon class="st1" points="15.55,20.26 16.64,19.16 14.33,16.86 12.03,19.16 13.12,20.26 14.33,19.04   "></polygon>		<polygon class="st2" points="15.43,20.38 15.55,20.26 14.33,19.04 13.12,20.26 13.24,20.38 14.33,19.29   "></polygon>					<rect x="13.56" y="19.61" transform="matrix(0.7071 -0.7071 0.7071 0.7071 -10.212 16.1041)" class="st1" width="1.55" height="1.55"></rect>	</g>	<g>		<polygon class="st1" points="34.74,15.4 35.83,14.31 28.67,7.14 21.5,14.31 22.59,15.4 28.67,9.33   "></polygon>		<polygon class="st2" points="34.62,15.52 34.74,15.4 28.67,9.33 22.59,15.4 22.71,15.52 28.67,9.57   "></polygon>		<polygon class="st1" points="33.53,16.61 34.62,15.52 28.67,9.57 22.71,15.52 23.81,16.61 28.67,11.75   "></polygon>		<polygon class="st2" points="33.4,16.73 33.53,16.61 28.67,11.75 23.81,16.61 23.93,16.73 28.67,12   "></polygon>		<polygon class="st1" points="32.31,17.83 33.4,16.73 28.67,12 23.93,16.73 25.02,17.83 28.67,14.18   "></polygon>		<polygon class="st2" points="32.19,17.95 32.31,17.83 28.67,14.18 25.02,17.83 25.14,17.95 28.67,14.43   "></polygon>		<polygon class="st1" points="31.1,19.04 32.19,17.95 28.67,14.43 25.14,17.95 26.24,19.04 28.67,16.61   "></polygon>		<polygon class="st2" points="30.97,19.16 31.1,19.04 28.67,16.61 26.24,19.04 26.36,19.16 28.67,16.86   "></polygon>		<polygon class="st1" points="29.88,20.26 30.97,19.16 28.67,16.86 26.36,19.16 27.45,20.26 28.67,19.04   "></polygon>		<polygon class="st2" points="29.76,20.38 29.88,20.26 28.67,19.04 27.45,20.26 27.57,20.38 28.67,19.29   "></polygon>					<rect x="27.89" y="19.61" transform="matrix(0.7071 -0.7071 0.7071 0.7071 -6.0139 26.2393)" class="st1" width="1.55" height="1.55"></rect>	</g>	<g>		<polygon class="st1" points="41.91,36.9 43,35.81 35.83,28.64 28.67,35.81 29.76,36.9 35.83,30.83   "></polygon>		<polygon class="st2" points="41.79,37.02 41.91,36.9 35.83,30.83 29.76,36.9 29.88,37.02 35.83,31.07   "></polygon>		<polygon class="st1" points="40.69,38.11 41.79,37.02 35.83,31.07 29.88,37.02 30.97,38.11 35.83,33.25   "></polygon>		<polygon class="st2" points="40.57,38.23 40.69,38.11 35.83,33.25 30.97,38.11 31.1,38.23 35.83,33.5   "></polygon>		<polygon class="st1" points="39.48,39.33 40.57,38.23 35.83,33.5 31.1,38.23 32.19,39.33 35.83,35.68   "></polygon>		<polygon class="st2" points="39.36,39.45 39.48,39.33 35.83,35.68 32.19,39.33 32.31,39.45 35.83,35.93   "></polygon>		<polygon class="st1" points="38.26,40.54 39.36,39.45 35.83,35.93 32.31,39.45 33.4,40.54 35.83,38.11   "></polygon>		<polygon class="st2" points="38.14,40.66 38.26,40.54 35.83,38.11 33.4,40.54 33.53,40.66 35.83,38.36   "></polygon>		<polygon class="st1" points="37.05,41.76 38.14,40.66 35.83,38.36 33.53,40.66 34.62,41.76 35.83,40.54   "></polygon>		<polygon class="st2" points="36.93,41.88 37.05,41.76 35.83,40.54 34.62,41.76 34.74,41.88 35.83,40.79   "></polygon>					<rect x="35.06" y="41.11" transform="matrix(0.7071 -0.7071 0.7071 0.7071 -19.1176 37.6043)" class="st1" width="1.55" height="1.55"></rect>	</g>	<g>		<polygon class="st1" points="27.57,36.9 28.67,35.81 21.5,28.64 14.33,35.81 15.43,36.9 21.5,30.83   "></polygon>		<polygon class="st2" points="27.45,37.02 27.57,36.9 21.5,30.83 15.43,36.9 15.55,37.02 21.5,31.07   "></polygon>		<polygon class="st1" points="26.36,38.11 27.45,37.02 21.5,31.07 15.55,37.02 16.64,38.11 21.5,33.25   "></polygon>		<polygon class="st2" points="26.24,38.23 26.36,38.11 21.5,33.25 16.64,38.11 16.76,38.23 21.5,33.5   "></polygon>		<polygon class="st1" points="25.14,39.33 26.24,38.23 21.5,33.5 16.76,38.23 17.86,39.33 21.5,35.68   "></polygon>		<polygon class="st2" points="25.02,39.45 25.14,39.33 21.5,35.68 17.86,39.33 17.98,39.45 21.5,35.93   "></polygon>		<polygon class="st1" points="23.93,40.54 25.02,39.45 21.5,35.93 17.98,39.45 19.07,40.54 21.5,38.11   "></polygon>		<polygon class="st2" points="23.81,40.66 23.93,40.54 21.5,38.11 19.07,40.54 19.19,40.66 21.5,38.36   "></polygon>		<polygon class="st1" points="22.71,41.76 23.81,40.66 21.5,38.36 19.19,40.66 20.29,41.76 21.5,40.54   "></polygon>		<polygon class="st2" points="22.59,41.88 22.71,41.76 21.5,40.54 20.29,41.76 20.41,41.88 21.5,40.79   "></polygon>					<rect x="20.73" y="41.11" transform="matrix(0.7071 -0.7071 0.7071 0.7071 -23.3157 27.4689)" class="st1" width="1.55" height="1.55"></rect>	</g>	<g>		<polygon class="st1" points="13.24,36.9 14.33,35.81 7.17,28.64 0,35.81 1.09,36.9 7.17,30.83   "></polygon>		<polygon class="st2" points="13.12,37.02 13.24,36.9 7.17,30.83 1.09,36.9 1.21,37.02 7.17,31.07   "></polygon>		<polygon class="st1" points="12.03,38.11 13.12,37.02 7.17,31.07 1.21,37.02 2.31,38.11 7.17,33.25   "></polygon>		<polygon class="st2" points="11.9,38.23 12.03,38.11 7.17,33.25 2.31,38.11 2.43,38.23 7.17,33.5   "></polygon>		<polygon class="st1" points="10.81,39.33 11.9,38.23 7.17,33.5 2.43,38.23 3.52,39.33 7.17,35.68   "></polygon>		<polygon class="st2" points="10.69,39.45 10.81,39.33 7.17,35.68 3.52,39.33 3.64,39.45 7.17,35.93   "></polygon>		<polygon class="st1" points="9.6,40.54 10.69,39.45 7.17,35.93 3.64,39.45 4.74,40.54 7.17,38.11   "></polygon>		<polygon class="st2" points="9.47,40.66 9.6,40.54 7.17,38.11 4.74,40.54 4.86,40.66 7.17,38.36   "></polygon>		<polygon class="st1" points="8.38,41.76 9.47,40.66 7.17,38.36 4.86,40.66 5.95,41.76 7.17,40.54   "></polygon>		<polygon class="st2" points="8.26,41.88 8.38,41.76 7.17,40.54 5.95,41.76 6.07,41.88 7.17,40.79   "></polygon>					<rect x="6.39" y="41.11" transform="matrix(0.7071 -0.7071 0.7071 0.7071 -27.5139 17.3337)" class="st1" width="1.55" height="1.55"></rect>	</g>	<g>		<polygon class="st1" points="20.41,29.73 21.5,28.64 14.33,21.47 7.17,28.64 8.26,29.73 14.33,23.66   "></polygon>		<polygon class="st2" points="20.29,29.85 20.41,29.73 14.33,23.66 8.26,29.73 8.38,29.85 14.33,23.9   "></polygon>		<polygon class="st1" points="19.19,30.95 20.29,29.85 14.33,23.9 8.38,29.85 9.47,30.95 14.33,26.09   "></polygon>		<polygon class="st2" points="19.07,31.07 19.19,30.95 14.33,26.09 9.47,30.95 9.6,31.07 14.33,26.33   "></polygon>		<polygon class="st1" points="17.98,32.16 19.07,31.07 14.33,26.33 9.6,31.07 10.69,32.16 14.33,28.52   "></polygon>		<polygon class="st2" points="17.86,32.28 17.98,32.16 14.33,28.52 10.69,32.16 10.81,32.28 14.33,28.76   "></polygon>		<polygon class="st1" points="16.76,33.38 17.86,32.28 14.33,28.76 10.81,32.28 11.9,33.38 14.33,30.95   "></polygon>		<polygon class="st2" points="16.64,33.5 16.76,33.38 14.33,30.95 11.9,33.38 12.03,33.5 14.33,31.19   "></polygon>		<polygon class="st1" points="15.55,34.59 16.64,33.5 14.33,31.19 12.03,33.5 13.12,34.59 14.33,33.38   "></polygon>		<polygon class="st2" points="15.43,34.71 15.55,34.59 14.33,33.38 13.12,34.59 13.24,34.71 14.33,33.62   "></polygon>					<rect x="13.56" y="33.94" transform="matrix(0.7071 -0.7071 0.7071 0.7071 -20.3472 20.3022)" class="st1" width="1.55" height="1.55"></rect>	</g>	<g>		<polygon class="st1" points="34.74,29.73 35.83,28.64 28.67,21.47 21.5,28.64 22.59,29.73 28.67,23.66   "></polygon>		<polygon class="st2" points="34.62,29.85 34.74,29.73 28.67,23.66 22.59,29.73 22.71,29.85 28.67,23.9   "></polygon>		<polygon class="st1" points="33.53,30.95 34.62,29.85 28.67,23.9 22.71,29.85 23.81,30.95 28.67,26.09   "></polygon>		<polygon class="st2" points="33.4,31.07 33.53,30.95 28.67,26.09 23.81,30.95 23.93,31.07 28.67,26.33   "></polygon>		<polygon class="st1" points="32.31,32.16 33.4,31.07 28.67,26.33 23.93,31.07 25.02,32.16 28.67,28.52   "></polygon>		<polygon class="st2" points="32.19,32.28 32.31,32.16 28.67,28.52 25.02,32.16 25.14,32.28 28.67,28.76   "></polygon>		<polygon class="st1" points="31.1,33.38 32.19,32.28 28.67,28.76 25.14,32.28 26.24,33.38 28.67,30.95   "></polygon>		<polygon class="st2" points="30.97,33.5 31.1,33.38 28.67,30.95 26.24,33.38 26.36,33.5 28.67,31.19   "></polygon>		<polygon class="st1" points="29.88,34.59 30.97,33.5 28.67,31.19 26.36,33.5 27.45,34.59 28.67,33.38   "></polygon>		<polygon class="st2" points="29.76,34.71 29.88,34.59 28.67,33.38 27.45,34.59 27.57,34.71 28.67,33.62   "></polygon>					<rect x="27.89" y="33.94" transform="matrix(0.7071 -0.7071 0.7071 0.7071 -16.1491 30.4374)" class="st1" width="1.55" height="1.55"></rect>	</g>	<g>		<polygon class="st1" points="7.17,42.97 9.35,42.97 14.33,37.99 19.31,42.97 21.5,42.97 14.33,35.81   "></polygon>		<polygon class="st2" points="14.33,38.23 19.07,42.97 19.31,42.97 14.33,37.99 9.35,42.97 9.6,42.97   "></polygon>		<polygon class="st1" points="9.6,42.97 11.78,42.97 14.33,40.42 16.88,42.97 19.07,42.97 14.33,38.23   "></polygon>		<polygon class="st2" points="11.78,42.97 12.03,42.97 14.33,40.66 16.64,42.97 16.88,42.97 14.33,40.42   "></polygon>		<polygon class="st1" points="12.03,42.97 14.21,42.97 14.33,42.85 14.45,42.97 16.64,42.97 14.33,40.66   "></polygon>		<polygon class="st2" points="14.21,42.97 14.45,42.97 14.33,42.85   "></polygon>	</g>	<g>		<polygon class="st1" points="21.5,42.97 23.69,42.97 28.67,37.99 33.65,42.97 35.83,42.97 28.67,35.81   "></polygon>		<polygon class="st2" points="28.67,38.23 33.4,42.97 33.65,42.97 28.67,37.99 23.69,42.97 23.93,42.97   "></polygon>		<polygon class="st1" points="23.93,42.97 26.12,42.97 28.67,40.42 31.22,42.97 33.4,42.97 28.67,38.23   "></polygon>		<polygon class="st2" points="26.12,42.97 26.36,42.97 28.67,40.66 30.97,42.97 31.22,42.97 28.67,40.42   "></polygon>		<polygon class="st1" points="26.36,42.97 28.55,42.97 28.67,42.85 28.79,42.97 30.97,42.97 28.67,40.66   "></polygon>		<polygon class="st2" points="28.55,42.97 28.79,42.97 28.67,42.85   "></polygon>	</g>	<g>		<polygon class="st1" points="7.17,-0.03 8.26,1.07 9.35,-0.03   "></polygon>		<polygon class="st1" points="20.41,1.07 21.5,-0.03 19.31,-0.03   "></polygon>		<polygon class="st2" points="19.07,-0.03 20.29,1.19 20.41,1.07 19.31,-0.03   "></polygon>		<polygon class="st2" points="9.35,-0.03 8.26,1.07 8.38,1.19 9.6,-0.03   "></polygon>		<polygon class="st1" points="9.6,-0.03 8.38,1.19 9.47,2.28 11.78,-0.03   "></polygon>		<polygon class="st1" points="16.88,-0.03 19.19,2.28 20.29,1.19 19.07,-0.03   "></polygon>		<polygon class="st2" points="11.78,-0.03 9.47,2.28 9.6,2.4 12.03,-0.03   "></polygon>		<polygon class="st2" points="16.64,-0.03 19.07,2.4 19.19,2.28 16.88,-0.03   "></polygon>		<polygon class="st1" points="14.45,-0.03 17.98,3.49 19.07,2.4 16.64,-0.03   "></polygon>		<polygon class="st1" points="12.03,-0.03 9.6,2.4 10.69,3.49 14.21,-0.03   "></polygon>		<polygon class="st2" points="14.21,-0.03 10.69,3.49 10.81,3.62 14.33,0.09 17.86,3.62 17.98,3.49 14.45,-0.03   "></polygon>		<polygon class="st1" points="10.81,3.62 11.9,4.71 14.33,2.28 16.76,4.71 17.86,3.62 14.33,0.09   "></polygon>		<polygon class="st2" points="11.9,4.71 12.03,4.83 14.33,2.52 16.64,4.83 16.76,4.71 14.33,2.28   "></polygon>		<polygon class="st1" points="12.03,4.83 13.12,5.92 14.33,4.71 15.55,5.92 16.64,4.83 14.33,2.52   "></polygon>		<polygon class="st2" points="13.12,5.92 13.24,6.05 14.33,4.95 15.43,6.05 15.55,5.92 14.33,4.71   "></polygon>					<rect x="13.56" y="5.27" transform="matrix(0.7071 -0.7071 0.7071 0.7071 -0.0768 11.9059)" class="st1" width="1.55" height="1.55"></rect>	</g>	<g>		<polygon class="st1" points="21.5,-0.03 22.59,1.07 23.69,-0.03   "></polygon>		<polygon class="st1" points="34.74,1.07 35.83,-0.03 33.65,-0.03   "></polygon>		<polygon class="st2" points="33.4,-0.03 34.62,1.19 34.74,1.07 33.65,-0.03   "></polygon>		<polygon class="st2" points="23.69,-0.03 22.59,1.07 22.71,1.19 23.93,-0.03   "></polygon>		<polygon class="st1" points="23.93,-0.03 22.71,1.19 23.81,2.28 26.12,-0.03   "></polygon>		<polygon class="st1" points="31.22,-0.03 33.53,2.28 34.62,1.19 33.4,-0.03   "></polygon>		<polygon class="st2" points="26.12,-0.03 23.81,2.28 23.93,2.4 26.36,-0.03   "></polygon>		<polygon class="st2" points="30.97,-0.03 33.4,2.4 33.53,2.28 31.22,-0.03   "></polygon>		<polygon class="st1" points="28.79,-0.03 32.31,3.49 33.4,2.4 30.97,-0.03   "></polygon>		<polygon class="st1" points="26.36,-0.03 23.93,2.4 25.02,3.49 28.55,-0.03   "></polygon>		<polygon class="st2" points="28.55,-0.03 25.02,3.49 25.14,3.62 28.67,0.09 32.19,3.62 32.31,3.49 28.79,-0.03   "></polygon>		<polygon class="st1" points="25.14,3.62 26.24,4.71 28.67,2.28 31.1,4.71 32.19,3.62 28.67,0.09   "></polygon>		<polygon class="st2" points="26.24,4.71 26.36,4.83 28.67,2.52 30.97,4.83 31.1,4.71 28.67,2.28   "></polygon>		<polygon class="st1" points="26.36,4.83 27.45,5.92 28.67,4.71 29.88,5.92 30.97,4.83 28.67,2.52   "></polygon>		<polygon class="st2" points="27.45,5.92 27.57,6.05 28.67,4.95 29.76,6.05 29.88,5.92 28.67,4.71   "></polygon>					<rect x="27.89" y="5.27" transform="matrix(0.7071 -0.7071 0.7071 0.7071 4.1214 22.0412)" class="st1" width="1.55" height="1.55"></rect>	</g>	<g>		<polygon class="st1" points="43,7.14 35.83,14.31 36.93,15.4 43,9.33   "></polygon>		<polygon class="st2" points="43,9.57 43,9.33 36.93,15.4 37.05,15.52 43,9.57   "></polygon>		<polygon class="st1" points="43,9.57 43,9.57 37.05,15.52 38.14,16.61 43,11.75   "></polygon>		<polygon class="st2" points="43,11.75 38.14,16.61 38.26,16.73 43,12   "></polygon>		<polygon class="st1" points="43,12 38.26,16.73 39.36,17.83 43,14.18   "></polygon>		<polygon class="st2" points="43,14.18 39.36,17.83 39.48,17.95 43,14.43   "></polygon>		<polygon class="st1" points="43,14.43 39.48,17.95 40.57,19.04 43,16.61   "></polygon>		<polygon class="st2" points="43,16.61 40.57,19.04 40.69,19.16 43,16.86   "></polygon>		<polygon class="st1" points="43,16.86 40.69,19.16 41.79,20.26 43,19.04   "></polygon>		<polygon class="st2" points="43,19.29 43,19.04 41.79,20.26 41.91,20.38 43,19.29   "></polygon>		<polygon class="st1" points="43,19.29 41.91,20.38 43,21.47 43,19.29   "></polygon>	</g>	<g>		<polygon class="st1" points="43,21.47 35.83,28.64 36.93,29.73 43,23.66   "></polygon>		<polygon class="st2" points="43,23.9 43,23.66 36.93,29.73 37.05,29.85 43,23.9   "></polygon>		<polygon class="st1" points="43,23.9 43,23.9 37.05,29.85 38.14,30.95 43,26.09   "></polygon>		<polygon class="st2" points="43,26.09 38.14,30.95 38.26,31.07 43,26.33   "></polygon>		<polygon class="st1" points="43,26.33 38.26,31.07 39.36,32.16 43,28.52   "></polygon>		<polygon class="st2" points="43,28.52 39.36,32.16 39.48,32.28 43,28.76   "></polygon>		<polygon class="st1" points="43,28.76 39.48,32.28 40.57,33.38 43,30.95   "></polygon>		<polygon class="st2" points="43,30.95 40.57,33.38 40.69,33.5 43,31.19   "></polygon>		<polygon class="st1" points="43,31.19 40.69,33.5 41.79,34.59 43,33.38   "></polygon>		<polygon class="st2" points="43,33.62 43,33.38 41.79,34.59 41.91,34.71 43,33.62   "></polygon>		<polygon class="st1" points="43,33.62 41.91,34.71 43,35.81 43,33.62   "></polygon>	</g>	<g>		<polygon class="st1" points="0,7.14 0,9.33 6.07,15.4 7.17,14.31   "></polygon>		<polygon class="st2" points="0,9.57 5.95,15.52 6.07,15.4 0,9.33   "></polygon>		<polygon class="st1" points="0,11.75 4.86,16.61 5.95,15.52 0,9.57   "></polygon>		<polygon class="st2" points="0,12 4.74,16.73 4.86,16.61 0,11.75   "></polygon>		<polygon class="st1" points="0,14.18 3.64,17.83 4.74,16.73 0,12   "></polygon>		<polygon class="st2" points="0,14.43 3.52,17.95 3.64,17.83 0,14.18   "></polygon>		<polygon class="st1" points="0,16.61 2.43,19.04 3.52,17.95 0,14.43   "></polygon>		<polygon class="st2" points="0,16.86 2.31,19.16 2.43,19.04 0,16.61   "></polygon>		<polygon class="st1" points="0,19.04 1.21,20.26 2.31,19.16 0,16.86   "></polygon>		<polygon class="st2" points="0,19.29 1.09,20.38 1.21,20.26 0,19.04   "></polygon>		<polygon class="st1" points="0,21.47 1.09,20.38 0,19.29   "></polygon>	</g>	<g>		<polygon class="st1" points="0,21.47 0,23.66 6.07,29.73 7.17,28.64   "></polygon>		<polygon class="st2" points="0,23.9 5.95,29.85 6.07,29.73 0,23.66   "></polygon>		<polygon class="st1" points="0,26.09 4.86,30.95 5.95,29.85 0,23.9   "></polygon>		<polygon class="st2" points="0,26.33 4.74,31.07 4.86,30.95 0,26.09   "></polygon>		<polygon class="st1" points="0,28.52 3.64,32.16 4.74,31.07 0,26.33   "></polygon>		<polygon class="st2" points="0,28.76 3.52,32.28 3.64,32.16 0,28.52   "></polygon>		<polygon class="st1" points="0,30.95 2.43,33.38 3.52,32.28 0,28.76   "></polygon>		<polygon class="st2" points="0,31.19 2.31,33.5 2.43,33.38 0,30.95   "></polygon>		<polygon class="st1" points="0,33.38 1.21,34.59 2.31,33.5 0,31.19   "></polygon>		<polygon class="st2" points="0,33.62 1.09,34.71 1.21,34.59 0,33.38   "></polygon>		<polygon class="st1" points="0,35.81 1.09,34.71 0,33.62   "></polygon>	</g>	<g>		<polygon class="st1" points="0,37.99 4.98,42.97 7.17,42.97 0,35.81   "></polygon>		<polygon class="st2" points="0,38.23 4.74,42.97 4.98,42.97 0,37.99   "></polygon>		<polygon class="st1" points="0,40.42 2.55,42.97 4.74,42.97 0,38.23   "></polygon>		<polygon class="st2" points="0,40.66 2.31,42.97 2.55,42.97 0,40.42   "></polygon>		<polygon class="st1" points="0,42.85 0.12,42.97 2.31,42.97 0,40.66   "></polygon>		<polygon class="st2" points="0,42.97 0.12,42.97 0,42.85   "></polygon>	</g>	<g>		<polygon class="st1" points="43,35.81 35.83,42.97 38.02,42.97 43,37.99   "></polygon>		<polygon class="st2" points="43,38.23 43,37.99 38.02,42.97 38.26,42.97 43,38.23   "></polygon>		<polygon class="st1" points="43,38.23 43,38.23 38.26,42.97 40.45,42.97 43,40.42   "></polygon>		<polygon class="st2" points="43,40.42 40.45,42.97 40.69,42.97 43,40.66   "></polygon>		<polygon class="st1" points="43,40.66 40.69,42.97 42.88,42.97 43,42.85   "></polygon>		<polygon class="st2" points="42.88,42.97 43,42.97 43,42.85   "></polygon>	</g>	<g>		<polygon class="st1" points="7.17,-0.03 4.98,-0.03 6.07,1.07   "></polygon>		<polygon class="st2" points="6.07,1.07 4.98,-0.03 4.74,-0.03 5.95,1.19   "></polygon>		<polygon class="st1" points="5.95,1.19 4.74,-0.03 2.55,-0.03 4.86,2.28   "></polygon>		<polygon class="st2" points="4.86,2.28 2.55,-0.03 2.31,-0.03 4.74,2.4   "></polygon>		<polygon class="st1" points="4.74,2.4 2.31,-0.03 0.12,-0.03 3.64,3.49   "></polygon>		<polygon class="st2" points="3.52,3.62 3.64,3.49 0.12,-0.03 0,-0.03 0,0.09   "></polygon>		<polygon class="st1" points="0,2.28 2.43,4.71 3.52,3.62 0,0.09   "></polygon>		<polygon class="st2" points="0,2.52 2.31,4.83 2.43,4.71 0,2.28   "></polygon>		<polygon class="st1" points="0,4.71 1.21,5.92 2.31,4.83 0,2.52   "></polygon>		<polygon class="st2" points="0,4.95 1.09,6.05 1.21,5.92 0,4.71   "></polygon>		<polygon class="st1" points="0,4.95 0,7.14 1.09,6.05   "></polygon>	</g>	<g>		<polygon class="st1" points="35.83,-0.03 36.93,1.07 38.02,-0.03   "></polygon>		<polygon class="st2" points="38.02,-0.03 36.93,1.07 37.05,1.19 38.26,-0.03   "></polygon>		<polygon class="st1" points="38.26,-0.03 37.05,1.19 38.14,2.28 40.45,-0.03   "></polygon>		<polygon class="st2" points="40.45,-0.03 38.14,2.28 38.26,2.4 40.69,-0.03   "></polygon>		<polygon class="st1" points="40.69,-0.03 38.26,2.4 39.36,3.49 42.88,-0.03   "></polygon>		<polygon class="st2" points="43,-0.03 42.88,-0.03 39.36,3.49 39.48,3.62 43,0.09   "></polygon>		<polygon class="st1" points="43,0.09 39.48,3.62 40.57,4.71 43,2.28   "></polygon>		<polygon class="st2" points="43,2.28 40.57,4.71 40.69,4.83 43,2.52   "></polygon>		<polygon class="st1" points="43,2.52 40.69,4.83 41.79,5.92 43,4.71   "></polygon>		<polygon class="st2" points="43,4.95 43,4.71 41.79,5.92 41.91,6.05 43,4.95   "></polygon>		<polygon class="st1" points="43,4.95 41.91,6.05 43,7.14 43,4.95   "></polygon>	</g></g></svg>